<svg width="34" height="34" viewBox="0 0 34 34" fill="none" xmlns="http://www.w3.org/2000/svg">
<path d="M14.677 1.29757C15.8089 -0.30919 18.1911 -0.309189 19.323 1.29757C20.1136 2.41991 21.5936 2.81648 22.8395 2.23982C24.6231 1.41426 26.6861 2.60534 26.863 4.56278C26.9865 5.93007 28.0699 7.0135 29.4372 7.13704C31.3947 7.31389 32.5857 9.37692 31.7602 11.1605C31.1835 12.4064 31.5801 13.8864 32.7024 14.677C34.3092 15.8089 34.3092 18.1911 32.7024 19.323C31.5801 20.1136 31.1835 21.5936 31.7602 22.8395C32.5857 24.6231 31.3947 26.6861 29.4372 26.863C28.0699 26.9865 26.9865 28.0699 26.863 29.4372C26.6861 31.3947 24.6231 32.5857 22.8395 31.7602C21.5936 31.1835 20.1136 31.5801 19.323 32.7024C18.1911 34.3092 15.8089 34.3092 14.677 32.7024C13.8864 31.5801 12.4064 31.1835 11.1605 31.7602C9.37692 32.5857 7.31389 31.3947 7.13704 29.4372C7.0135 28.0699 5.93007 26.9865 4.56278 26.863C2.60534 26.6861 1.41426 24.6231 2.23982 22.8395C2.81648 21.5936 2.41991 20.1136 1.29757 19.323C-0.30919 18.1911 -0.30919 15.8089 1.29757 14.677C2.41991 13.8864 2.81648 12.4064 2.23982 11.1605C1.41426 9.37692 2.60534 7.31389 4.56278 7.13704C5.93007 7.0135 7.0135 5.93007 7.13704 4.56278C7.31389 2.60534 9.37692 1.41426 11.1605 2.23982C12.4064 2.81648 13.8864 2.41991 14.677 1.29757Z" fill="#2BE080"/>
</svg>
